<svg xmlns="http://www.w3.org/2000/svg" xml:space="preserve" width="1080.0004mm" height="1080mm" viewBox="0 0 1080.0004 1080"><path d="m-189.926 780.322-.002-713.152c0-112.272 97.632-183.348 183.349-183.348h713.303c91.38 0 183.348 113.095 183.348 183.348l-.002 713.152c0 88.139-105.502 183.536-183.346 183.5l-713.303-.337c-100.881-.047-183.347-110.511-183.347-183.163Z" style="fill:#292929;fill-opacity:1;stroke-width:.999999" transform="translate(189.928 116.178)"/><path d="M80.072 307.285v252.497h233.074v233.074h33.99c78.015 0 140.492-25.574 194.552-79.31 55.032-55.032 81.9-124.954 78.015-202.322-2.266-39.816-8.416-67.008-23.63-99.703-33.02-72.836-102.294-130.457-177.72-148.261-12.3-2.914-24.602-5.827-26.544-6.475-3.237-.971-4.209-23.955-4.209-101.646V54.788H80.072Zm232.427-119.451-.972 68.304-22.66 5.827c-51.47 12.948-95.82 38.198-124.63 70.57l-16.185 18.127V119.53h165.094zm.647 221.42v79.31h-156.03l2.266-10.682c10.359-49.852 49.529-100.352 96.467-125.601 15.215-8.093 44.673-19.747 56.65-22.013.324-.323.648 35.285.648 78.986zm110.71-67.98c55.68 22.337 101.97 74.779 117.509 133.047 6.798 24.926 6.798 74.778 0 99.704-17.157 64.095-72.188 120.098-136.608 138.873l-17.156 5.18V329.945l9.064 1.942c4.855 1.295 17.156 5.503 27.192 9.388z" style="fill:#fff;stroke-width:3.23707" transform="translate(189.928 116.178)"/></svg>